<svg width="74" height="109" viewBox="0 0 74 109" fill="none" xmlns="http://www.w3.org/2000/svg">
<path fill-rule="evenodd" clip-rule="evenodd" d="M0 109V0H74V72C74 92.4345 57.4345 109 37 109H0Z" fill="#2CCB69"/>
<path fill-rule="evenodd" clip-rule="evenodd" d="M34.672 54.2V55.168H37.268V84.032H34.672V85H57.992L58.828 74.704H57.904C55.308 80.072 52.888 84.032 47.432 84.032H45.848V55.168H50.512V54.2H34.672ZM18.744 54.2V55.036H22.044V77.212C22.044 83.372 21.604 84.604 19.272 84.604C17.996 84.604 17.116 83.988 17.116 83.064C17.116 82.712 17.248 82.36 17.512 81.92H19.228C19.536 81.084 19.712 80.292 19.712 79.544C19.712 77.608 18.612 76.156 16.06 76.156C13.684 76.156 12.144 77.696 12.144 80.204C12.144 83.504 15.18 85.396 19.888 85.396C26.84 85.396 30.624 82.1399 30.624 74.044V55.036H33.044V54.2H18.744Z" fill="black"/>
</svg>
