<svg width="396" height="381" viewBox="0 0 396 381" fill="none" xmlns="http://www.w3.org/2000/svg">
<path fill-rule="evenodd" clip-rule="evenodd" d="M375.822 179.101C395.322 84.8005 329.622 8.20036 228.922 8.00036C128.323 7.80036 30.9228 84.1005 11.4228 178.401C-8.07715 272.701 57.7227 349.301 158.323 349.501C258.922 349.701 356.322 273.301 375.822 179.101V179.101Z" stroke="#2CCB69" stroke-width="16"/>
<path fill-rule="evenodd" clip-rule="evenodd" d="M203.921 154.901C197.721 164.301 190.721 164.301 188.321 154.901L167.021 71.8002C164.621 62.5001 171.021 50.2 181.221 44.6C181.221 44.6 198.521 35.1 220.42 35.2C241.92 35.2 255.62 44.9 255.62 44.9C263.519 50.5 265.019 62.7001 258.819 72.1002L203.921 154.901Z" stroke="#2CCB69" stroke-width="16"/>
<path fill-rule="evenodd" clip-rule="evenodd" d="M194.82 198.698C192.52 189.298 185.52 189.298 179.221 198.598L123.523 281.6C117.224 290.9 118.624 303.2 126.523 308.8C126.523 308.8 139.822 318.301 161.721 318.401C183.22 318.401 200.819 308.901 200.819 308.901C211.019 303.3 217.519 291.1 215.219 281.8L194.82 198.698Z" stroke="#2CCB69" stroke-width="16"/>
<path fill-rule="evenodd" clip-rule="evenodd" d="M212.925 184.502C203.725 180.502 205.125 173.901 215.925 169.901L312.025 133.999C322.825 129.999 335.125 133.599 339.425 142.099C339.425 142.099 346.625 156.5 342.325 177.001C338.125 197.103 324.925 211.804 324.925 211.804C317.225 220.304 303.425 224.004 294.225 220.004L212.925 184.502Z" stroke="#2CCB69" stroke-width="16"/>
<path fill-rule="evenodd" clip-rule="evenodd" d="M166.223 184.396C177.023 180.396 178.423 173.796 169.323 169.796L88.1214 133.596C79.0212 129.496 65.2208 133.096 57.4207 141.596C57.4207 141.596 44.3204 155.896 40.0203 176.496C35.8202 196.596 43.0203 211.296 43.0203 211.296C47.2204 219.796 59.5207 223.596 70.321 219.596L166.223 184.396Z" stroke="#2CCB69" stroke-width="16"/>
<path fill-rule="evenodd" clip-rule="evenodd" d="M184.72 155.798C186.82 165.298 180.92 169.898 171.621 166.198L88.6245 132.798C79.3249 128.998 75.1251 117.797 79.3249 107.797C79.3249 107.797 86.4246 90.8969 104.924 76.4967C123.023 62.2964 142.122 58.6964 142.122 58.6964C153.222 56.5963 163.921 62.6964 166.021 72.0966L184.72 155.798Z" stroke="#2CCB69" stroke-width="16"/>
<path fill-rule="evenodd" clip-rule="evenodd" d="M211.426 186.798C202.126 182.998 196.226 187.598 198.226 197.098L216.226 281.4C218.226 290.9 228.926 297.001 240.026 295.001C240.026 295.001 258.725 291.6 277.225 277.1C295.325 262.9 302.725 245.699 302.725 245.699C307.025 235.699 302.925 224.499 293.625 220.599L211.426 186.798Z" stroke="#2CCB69" stroke-width="16"/>
<path fill-rule="evenodd" clip-rule="evenodd" d="M215.525 166.801C204.626 170.601 200.626 165.901 206.625 156.5L259.523 72.397C265.422 62.8967 278.722 56.8964 288.921 58.8965C288.921 58.8965 306.22 62.3966 318.72 76.8972C330.919 91.1978 331.219 108.298 331.219 108.298C331.419 118.299 322.619 129.499 311.72 133.299L215.525 166.801Z" stroke="#2CCB69" stroke-width="16"/>
<path fill-rule="evenodd" clip-rule="evenodd" d="M176.119 197.696C182.119 188.296 178.119 183.596 167.32 187.296L70.624 220.397C59.7245 224.097 50.9249 235.298 51.0249 245.298C51.0249 245.298 51.2249 262.199 63.7243 276.699C75.9238 291 93.523 294.6 93.523 294.6C103.723 296.7 117.022 290.7 123.022 281.299L176.119 197.696Z" stroke="#2CCB69" stroke-width="16"/>
<path d="M26.3257 280.601C60.9257 335.601 122.226 372.201 192.026 372.201C300.126 372.201 387.726 284.601 387.726 176.501C387.726 145.401 380.426 116.001 367.526 89.8008" stroke="#2CCB69" stroke-width="16"/>
</svg>
