<svg width="45" height="45" viewBox="0 0 45 45" fill="none" xmlns="http://www.w3.org/2000/svg">
<path fill-rule="evenodd" clip-rule="evenodd" d="M22.5 0C34.9264 0 45 10.0736 45 22.5C45 34.9264 34.9264 45 22.5 45C10.0736 45 0 34.9264 0 22.5C0 10.0736 10.0736 0 22.5 0Z" fill="#2CCB69"/>
<path fill-rule="evenodd" clip-rule="evenodd" d="M18.7109 32.9756C27.5489 32.9756 32.3577 25.6973 32.3577 19.3288C32.3577 19.0688 32.3577 18.9388 32.3577 18.6789C33.2675 18.0291 34.0473 17.1193 34.6972 16.2095C33.7874 16.5994 32.8776 16.8593 31.9678 16.9893C33.0076 16.3395 33.6574 15.4297 34.0473 14.3899C33.1376 14.9098 32.0978 15.2997 31.058 15.5596C30.1483 14.5199 28.8486 14 27.5489 14C24.9495 14 22.74 16.2095 22.74 18.8089C22.74 19.1988 22.74 19.5887 22.87 19.8486C18.8409 19.5887 15.3317 17.7691 12.9923 14.7798C12.6024 15.4297 12.3424 16.3395 12.3424 17.2492C12.3424 18.9388 13.2522 20.3685 14.4219 21.2783C13.6421 21.2783 12.8623 21.0184 12.2125 20.6285C12.2125 22.9679 13.9021 24.9175 16.1115 25.3074C15.7216 25.4373 15.3317 25.4373 14.8118 25.4373C14.5519 25.4373 14.162 25.4373 13.9021 25.3074C14.5519 27.2569 16.2415 28.5566 18.451 28.6866C16.7614 29.9863 14.6819 30.7661 12.4724 30.7661C12.0825 30.7661 11.6926 30.7661 11.3027 30.6361C13.3822 32.1957 15.9816 32.9756 18.7109 32.9756Z" fill="#151515"/>
</svg>
