<svg width="45" height="45" viewBox="0 0 45 45" fill="none" xmlns="http://www.w3.org/2000/svg">
<path fill-rule="evenodd" clip-rule="evenodd" d="M22.5 45C10.0736 45 0 34.9264 0 22.5C0 10.0736 10.0736 0 22.5 0C34.9264 0 45 10.0736 45 22.5C45 34.9264 34.9264 45 22.5 45Z" fill="#2CCB69"/>
<path fill-rule="evenodd" clip-rule="evenodd" d="M28.4866 15.9282C27.7263 15.9282 27.0927 16.5617 27.0927 17.322C27.0927 18.0823 27.7263 18.7159 28.4866 18.7159C29.2469 18.7159 29.8804 18.0823 29.8804 17.322C29.8804 16.5617 29.2469 15.9282 28.4866 15.9282ZM22.4043 27.2057C20.2501 27.2057 18.6029 25.5584 18.6029 23.4043C18.6029 21.2502 20.2501 19.6029 22.4043 19.6029C24.5584 19.6029 26.2057 21.2502 26.2057 23.4043C26.2057 25.5584 24.5584 27.2057 22.4043 27.2057ZM22.4043 17.5754C19.1097 17.5754 16.5754 20.1097 16.5754 23.4043C16.5754 26.6989 19.2364 29.2332 22.4043 29.2332C25.6989 29.2332 28.2332 26.5721 28.2332 23.4043C28.2332 20.2364 25.6989 17.5754 22.4043 17.5754ZM22.4043 12C19.3631 12 18.8563 12 17.7159 12.1267C16.4487 12.1267 15.6884 12.3801 14.9281 12.6336C14.1679 12.887 13.5343 13.2671 12.9007 13.9007C12.2671 14.5343 11.887 15.1679 11.6336 15.9281C11.2534 16.6884 11.1267 17.4487 11.1267 18.7159C11 19.8563 11 20.3631 11 23.4043C11 26.4454 11 26.9523 11.1267 28.0927C11.1267 29.3599 11.3801 30.1201 11.6336 30.8804C11.887 31.6407 12.2671 32.2743 12.9007 32.9079C13.5343 33.5414 14.1679 33.9216 14.9281 34.175C15.6884 34.4284 16.4487 34.6819 17.7159 34.6819C18.8563 34.8086 19.3631 34.8086 22.4043 34.8086C25.4454 34.8086 25.9523 34.8086 27.0927 34.6819C28.3599 34.6819 29.1201 34.4284 29.8804 34.175C30.6407 33.9216 31.2743 33.5414 31.9079 32.9079C32.5414 32.2743 32.9216 31.6407 33.175 30.8804C33.4284 30.1201 33.6819 29.3599 33.6819 28.0927C33.6819 26.8256 33.8086 26.4454 33.8086 23.4043C33.8086 20.3631 33.8086 19.8563 33.6819 18.7159C33.6819 17.4487 33.4284 16.6884 33.175 15.9281C32.9216 15.1679 32.5414 14.5343 31.9079 13.9007C31.2743 13.2671 30.6407 12.887 29.8804 12.6336C29.1201 12.3801 28.3599 12.1267 27.0927 12.1267C25.9523 12 25.4454 12 22.4043 12ZM22.4043 14.0274C25.4454 14.0274 25.8256 14.0274 26.966 14.1541C28.1064 14.1541 28.74 14.4076 29.1201 14.5343C29.627 14.7877 30.0072 15.0411 30.3873 15.4213C30.7674 15.8014 31.0209 16.1816 31.2743 16.6884C31.401 17.0686 31.6544 17.7021 31.6544 18.8426C31.6544 19.983 31.7811 20.3631 31.7811 23.4043C31.7811 26.4454 31.7811 26.8256 31.6544 27.966C31.6544 29.1064 31.401 29.74 31.2743 30.1202C31.0208 30.627 30.7674 31.0072 30.3873 31.3873C30.0071 31.7674 29.627 32.0209 29.1201 32.2743C28.74 32.401 28.1064 32.6544 26.966 32.6544C25.8256 32.6544 25.4454 32.7811 22.4043 32.7811C19.3631 32.7811 18.983 32.7811 17.8426 32.6544C16.7021 32.6544 16.0686 32.401 15.6884 32.2743C15.1815 32.0208 14.8014 31.7674 14.4213 31.3873C14.0411 31.0071 13.7877 30.627 13.5343 30.1201C13.4075 29.74 13.1541 29.1064 13.1541 27.966C13.1541 26.8256 13.0274 26.4454 13.0274 23.4043C13.0274 20.3631 13.0274 19.983 13.1541 18.8426C13.1541 17.7021 13.4075 17.0686 13.5343 16.6884C13.7877 16.1815 14.0411 15.8014 14.4213 15.4213C14.8014 14.9144 15.1816 14.661 15.6884 14.5343C16.0685 14.4075 16.7021 14.1541 17.8426 14.1541C18.983 14.0274 19.3631 14.0274 22.4043 14.0274" fill="#151515"/>
</svg>
