<svg width="45" height="45" viewBox="0 0 45 45" fill="none" xmlns="http://www.w3.org/2000/svg">
<path fill-rule="evenodd" clip-rule="evenodd" d="M22.5 0C34.9264 0 45 10.0736 45 22.5C45 34.9264 34.9264 45 22.5 45C10.0736 45 0 34.9264 0 22.5C0 10.0736 10.0736 0 22.5 0Z" fill="#2CCB69"/>
<path fill-rule="evenodd" clip-rule="evenodd" d="M25.8209 22.2385C28.7619 21.5965 31.6193 21.8972 34.4616 22.8499C34.3792 19.9329 33.3831 17.4304 31.4558 15.2683C29.6266 17.4279 27.452 19.0954 24.8971 20.2727C25.2121 20.9424 25.5108 21.5782 25.8209 22.2385H25.8209ZM30.3194 14.2217C29.2523 13.2269 27.0474 11.9345 24.3954 11.6242C22.8484 11.4431 21.3241 11.5483 19.7991 12.0024C21.4398 14.2129 22.8846 16.5 24.1822 18.902C26.5998 17.8033 28.6281 16.2357 30.3194 14.2217H30.3194ZM28.7371 32.8612C28.7735 32.8612 28.794 32.8669 28.8083 32.8601C28.866 32.8327 28.9241 32.8053 28.978 32.7711C31.9475 30.8806 33.7324 28.201 34.3351 24.7323C34.3704 24.5294 34.3192 24.4326 34.1065 24.3589C32.6724 23.8625 31.2036 23.5394 29.6883 23.4517C28.597 23.3885 27.5111 23.4491 26.4171 23.6708C27.5926 26.6354 28.446 29.6697 28.7371 32.8612H28.7371ZM11.877 20.2509C15.5504 20.8549 19.1507 20.7079 22.7027 19.4965C22.6534 19.3916 22.6262 19.3249 22.5919 19.2623C21.356 17.0109 19.9767 14.8514 18.4529 12.7832C18.3113 12.5911 18.2077 12.5808 18.0078 12.6804C16.6979 13.3334 15.5386 14.1853 14.5519 15.2676C13.2506 16.6945 12.361 18.3436 11.877 20.251L11.877 20.2509ZM14.5179 30.703C15.7225 28.8763 17.1123 27.2652 18.746 25.8736C20.3905 24.4726 22.2149 23.3719 24.2926 22.6608C24.0363 22.1248 23.7932 21.6149 23.5481 21.1059C23.5133 21.0333 23.4691 20.9647 23.4194 20.8767C19.5637 22.2333 15.6212 22.4106 11.6007 21.7696C11.3124 25.1788 12.2716 28.1265 14.5179 30.703V30.703ZM24.9063 24.0557C23.1664 24.5947 21.6472 25.4546 20.2573 26.5482C18.4047 28.0059 16.8917 29.7648 15.6528 31.7786C15.7624 31.8692 15.8444 31.9411 15.9304 32.0081C17.7263 33.4005 19.7496 34.2124 22.0191 34.4087C23.7348 34.557 25.3941 34.3248 27.0101 33.7377C27.2049 33.6669 27.2639 33.5699 27.2374 33.3777C27.2077 33.1604 27.1992 32.94 27.1756 32.7216C26.9463 30.5949 26.4705 28.5222 25.7854 26.4979C25.5108 25.6868 25.2063 24.886 24.9063 24.0557ZM23.0344 10.0002C30.3145 10.0276 36.0271 15.9753 35.9999 23.0201C35.9715 30.3946 29.934 36.0332 22.965 35.999C15.6677 35.9634 9.9736 30.002 10.0001 22.9777C10.0277 15.6317 16.0334 9.96431 23.0344 10.0002H23.0344Z" fill="black"/>
</svg>
