<svg width="47" height="32" viewBox="0 0 47 32" fill="none" xmlns="http://www.w3.org/2000/svg">
<path fill-rule="evenodd" clip-rule="evenodd" d="M22.672 0.200001V1.168H25.268V30.032H22.672V31H45.992L46.828 20.704H45.904C43.308 26.072 40.888 30.032 35.432 30.032H33.848V1.168H38.512V0.200001H22.672ZM6.74404 0.200001V1.036H10.044V23.212C10.044 29.372 9.60404 30.604 7.27204 30.604C5.99604 30.604 5.11604 29.988 5.11604 29.064C5.11604 28.712 5.24804 28.36 5.51204 27.92H7.22804C7.53604 27.084 7.71204 26.292 7.71204 25.544C7.71204 23.608 6.61204 22.156 4.06004 22.156C1.68404 22.156 0.144043 23.696 0.144043 26.204C0.144043 29.504 3.18004 31.396 7.88804 31.396C14.84 31.396 18.624 28.14 18.624 20.044V1.036H21.044V0.200001H6.74404Z" fill="black"/>
</svg>
